<?xml version="1.0" encoding="utf-8" standalone="no"?>
<!DOCTYPE svg PUBLIC "-//W3C//DTD SVG 1.1//EN"
  "http://www.w3.org/Graphics/SVG/1.1/DTD/svg11.dtd">
<svg xmlns:xlink="http://www.w3.org/1999/xlink" width="460.8pt" height="345.6pt" viewBox="0 0 460.8 345.6" xmlns="http://www.w3.org/2000/svg" version="1.1">
 <metadata>
  <rdf:RDF xmlns:dc="http://purl.org/dc/elements/1.1/" xmlns:cc="http://creativecommons.org/ns#" xmlns:rdf="http://www.w3.org/1999/02/22-rdf-syntax-ns#">
   <cc:Work>
    <dc:type rdf:resource="http://purl.org/dc/dcmitype/StillImage"/>
    <dc:date>2023-05-16T09:57:48.411266</dc:date>
    <dc:format>image/svg+xml</dc:format>
    <dc:creator>
     <cc:Agent>
      <dc:title>Matplotlib v3.7.1, https://matplotlib.org/</dc:title>
     </cc:Agent>
    </dc:creator>
   </cc:Work>
  </rdf:RDF>
 </metadata>
 <defs>
  <style type="text/css">*{stroke-linejoin: round; stroke-linecap: butt}</style>
 </defs>
 <g id="figure_1">
  <g id="patch_1">
   <path d="M 0 345.6 
L 460.8 345.6 
L 460.8 0 
L 0 0 
z
" style="fill: #ffffff"/>
  </g>
  <g id="axes_1">
   <g id="LineCollection_1">
    <path d="M 39.986777 92.190461 
L 62.692671 95.662451 
" clip-path="url(#p1bd5b297f3)" style="fill: none; stroke: #000000"/>
    <path d="M 62.692671 95.662451 
L 80.923215 85.978647 
" clip-path="url(#p1bd5b297f3)" style="fill: none; stroke: #000000"/>
    <path d="M 80.923215 85.978647 
L 100.900313 75.429434 
" clip-path="url(#p1bd5b297f3)" style="fill: none; stroke: #000000"/>
    <path d="M 100.900313 75.429434 
L 121.150622 64.099253 
" clip-path="url(#p1bd5b297f3)" style="fill: none; stroke: #000000"/>
    <path d="M 121.150622 64.099253 
L 141.882413 52.880487 
" clip-path="url(#p1bd5b297f3)" style="fill: none; stroke: #000000"/>
    <path d="M 141.882413 52.880487 
L 156.78431 37.529391 
" clip-path="url(#p1bd5b297f3)" style="fill: none; stroke: #000000"/>
    <path d="M 156.78431 37.529391 
L 179.424251 29.990083 
" clip-path="url(#p1bd5b297f3)" style="fill: none; stroke: #000000"/>
    <path d="M 179.424251 29.990083 
L 204.654847 33.650282 
" clip-path="url(#p1bd5b297f3)" style="fill: none; stroke: #000000"/>
    <path d="M 204.654847 33.650282 
L 227.066528 45.522426 
" clip-path="url(#p1bd5b297f3)" style="fill: none; stroke: #000000"/>
    <path d="M 227.066528 45.522426 
L 250.626727 56.152864 
" clip-path="url(#p1bd5b297f3)" style="fill: none; stroke: #000000"/>
    <path d="M 250.626727 56.152864 
L 277.852623 61.424554 
" clip-path="url(#p1bd5b297f3)" style="fill: none; stroke: #000000"/>
    <path d="M 277.852623 61.424554 
L 307.556822 61.148945 
" clip-path="url(#p1bd5b297f3)" style="fill: none; stroke: #000000"/>
    <path d="M 307.556822 61.148945 
L 338.48357 58.5675 
" clip-path="url(#p1bd5b297f3)" style="fill: none; stroke: #000000"/>
    <path d="M 338.48357 58.5675 
L 368.380615 60.208637 
" clip-path="url(#p1bd5b297f3)" style="fill: none; stroke: #000000"/>
    <path d="M 368.380615 60.208637 
L 394.369095 68.165055 
" clip-path="url(#p1bd5b297f3)" style="fill: none; stroke: #000000"/>
    <path d="M 394.369095 68.165055 
L 412.926456 81.966478 
" clip-path="url(#p1bd5b297f3)" style="fill: none; stroke: #000000"/>
    <path d="M 412.926456 81.966478 
L 420.813223 99.424568 
" clip-path="url(#p1bd5b297f3)" style="fill: none; stroke: #000000"/>
    <path d="M 420.813223 99.424568 
L 415.374885 117.382119 
" clip-path="url(#p1bd5b297f3)" style="fill: none; stroke: #000000"/>
    <path d="M 415.374885 117.382119 
L 397.442177 132.808907 
" clip-path="url(#p1bd5b297f3)" style="fill: none; stroke: #000000"/>
    <path d="M 397.442177 132.808907 
L 371.58872 144.575952 
" clip-path="url(#p1bd5b297f3)" style="fill: none; stroke: #000000"/>
    <path d="M 371.58872 144.575952 
L 341.457715 152.277256 
" clip-path="url(#p1bd5b297f3)" style="fill: none; stroke: #000000"/>
    <path d="M 341.457715 152.277256 
L 308.54845 157.753511 
" clip-path="url(#p1bd5b297f3)" style="fill: none; stroke: #000000"/>
    <path d="M 308.54845 157.753511 
L 274.356722 161.914595 
" clip-path="url(#p1bd5b297f3)" style="fill: none; stroke: #000000"/>
    <path d="M 274.356722 161.914595 
L 239.3428 165.757437 
" clip-path="url(#p1bd5b297f3)" style="fill: none; stroke: #000000"/>
    <path d="M 239.3428 165.757437 
L 205.165197 170.394924 
" clip-path="url(#p1bd5b297f3)" style="fill: none; stroke: #000000"/>
    <path d="M 205.165197 170.394924 
L 171.079823 176.538316 
" clip-path="url(#p1bd5b297f3)" style="fill: none; stroke: #000000"/>
    <path d="M 171.079823 176.538316 
L 139.778608 184.70341 
" clip-path="url(#p1bd5b297f3)" style="fill: none; stroke: #000000"/>
    <path d="M 139.778608 184.70341 
L 112.662704 196.366058 
" clip-path="url(#p1bd5b297f3)" style="fill: none; stroke: #000000"/>
    <path d="M 112.662704 196.366058 
L 93.955969 212.326546 
" clip-path="url(#p1bd5b297f3)" style="fill: none; stroke: #000000"/>
    <path d="M 93.955969 212.326546 
L 89.39933 231.438495 
" clip-path="url(#p1bd5b297f3)" style="fill: none; stroke: #000000"/>
    <path d="M 89.39933 231.438495 
L 101.196653 249.203647 
" clip-path="url(#p1bd5b297f3)" style="fill: none; stroke: #000000"/>
    <path d="M 101.196653 249.203647 
L 123.743781 264.897646 
" clip-path="url(#p1bd5b297f3)" style="fill: none; stroke: #000000"/>
    <path d="M 123.743781 264.897646 
L 152.203651 280.234047 
" clip-path="url(#p1bd5b297f3)" style="fill: none; stroke: #000000"/>
    <path d="M 152.203651 280.234047 
L 184.138837 296.644019 
" clip-path="url(#p1bd5b297f3)" style="fill: none; stroke: #000000"/>
    <path d="M 184.138837 296.644019 
L 217.698843 308.062915 
" clip-path="url(#p1bd5b297f3)" style="fill: none; stroke: #000000"/>
    <path d="M 217.698843 308.062915 
L 252.227764 314.432649 
" clip-path="url(#p1bd5b297f3)" style="fill: none; stroke: #000000"/>
    <path d="M 252.227764 314.432649 
L 286.102241 315.609917 
" clip-path="url(#p1bd5b297f3)" style="fill: none; stroke: #000000"/>
    <path d="M 286.102241 315.609917 
L 317.199571 311.279012 
" clip-path="url(#p1bd5b297f3)" style="fill: none; stroke: #000000"/>
    <path d="M 317.199571 311.279012 
L 342.07099 300.644962 
" clip-path="url(#p1bd5b297f3)" style="fill: none; stroke: #000000"/>
    <path d="M 342.07099 300.644962 
L 356.434199 286.373608 
" clip-path="url(#p1bd5b297f3)" style="fill: none; stroke: #000000"/>
    <path d="M 356.434199 286.373608 
L 350.217125 273.594401 
" clip-path="url(#p1bd5b297f3)" style="fill: none; stroke: #000000"/>
    <path d="M 350.217125 273.594401 
L 327.653704 267.778544 
" clip-path="url(#p1bd5b297f3)" style="fill: none; stroke: #000000"/>
    <path d="M 327.653704 267.778544 
L 299.834603 266.773501 
" clip-path="url(#p1bd5b297f3)" style="fill: none; stroke: #000000"/>
    <path d="M 299.834603 266.773501 
L 269.858614 269.027902 
" clip-path="url(#p1bd5b297f3)" style="fill: none; stroke: #000000"/>
    <path d="M 269.858614 269.027902 
L 239.157116 273.920824 
" clip-path="url(#p1bd5b297f3)" style="fill: none; stroke: #000000"/>
    <path d="M 239.157116 273.920824 
L 208.562362 280.901799 
" clip-path="url(#p1bd5b297f3)" style="fill: none; stroke: #000000"/>
    <path d="M 208.562362 280.901799 
L 178.543377 289.208409 
" clip-path="url(#p1bd5b297f3)" style="fill: none; stroke: #000000"/>
    <path d="M 178.543377 289.208409 
L 152.228108 298.616158 
" clip-path="url(#p1bd5b297f3)" style="fill: none; stroke: #000000"/>
    <path d="M 152.228108 298.616158 
L 130.08647 299.658372 
" clip-path="url(#p1bd5b297f3)" style="fill: none; stroke: #000000"/>
   </g>
   <g id="PathCollection_1">
    <defs>
     <path id="m01e6af75c8" d="M 0 6.614378 
C 1.754154 6.614378 3.436698 5.917446 4.677072 4.677072 
C 5.917446 3.436698 6.614378 1.754154 6.614378 0 
C 6.614378 -1.754154 5.917446 -3.436698 4.677072 -4.677072 
C 3.436698 -5.917446 1.754154 -6.614378 0 -6.614378 
C -1.754154 -6.614378 -3.436698 -5.917446 -4.677072 -4.677072 
C -5.917446 -3.436698 -6.614378 -1.754154 -6.614378 0 
C -6.614378 1.754154 -5.917446 3.436698 -4.677072 4.677072 
C -3.436698 5.917446 -1.754154 6.614378 0 6.614378 
z
" style="stroke: #1f78b4"/>
    </defs>
    <g clip-path="url(#p1bd5b297f3)">
     <use xlink:href="#m01e6af75c8" x="39.986777" y="92.190461" style="fill: #1f78b4; stroke: #1f78b4"/>
     <use xlink:href="#m01e6af75c8" x="62.692671" y="95.662451" style="fill: #1f78b4; stroke: #1f78b4"/>
     <use xlink:href="#m01e6af75c8" x="80.923215" y="85.978647" style="fill: #1f78b4; stroke: #1f78b4"/>
     <use xlink:href="#m01e6af75c8" x="100.900313" y="75.429434" style="fill: #1f78b4; stroke: #1f78b4"/>
     <use xlink:href="#m01e6af75c8" x="121.150622" y="64.099253" style="fill: #1f78b4; stroke: #1f78b4"/>
     <use xlink:href="#m01e6af75c8" x="141.882413" y="52.880487" style="fill: #1f78b4; stroke: #1f78b4"/>
     <use xlink:href="#m01e6af75c8" x="156.78431" y="37.529391" style="fill: #1f78b4; stroke: #1f78b4"/>
     <use xlink:href="#m01e6af75c8" x="179.424251" y="29.990083" style="fill: #1f78b4; stroke: #1f78b4"/>
     <use xlink:href="#m01e6af75c8" x="204.654847" y="33.650282" style="fill: #1f78b4; stroke: #1f78b4"/>
     <use xlink:href="#m01e6af75c8" x="227.066528" y="45.522426" style="fill: #1f78b4; stroke: #1f78b4"/>
     <use xlink:href="#m01e6af75c8" x="250.626727" y="56.152864" style="fill: #1f78b4; stroke: #1f78b4"/>
     <use xlink:href="#m01e6af75c8" x="277.852623" y="61.424554" style="fill: #1f78b4; stroke: #1f78b4"/>
     <use xlink:href="#m01e6af75c8" x="307.556822" y="61.148945" style="fill: #1f78b4; stroke: #1f78b4"/>
     <use xlink:href="#m01e6af75c8" x="338.48357" y="58.5675" style="fill: #1f78b4; stroke: #1f78b4"/>
     <use xlink:href="#m01e6af75c8" x="368.380615" y="60.208637" style="fill: #1f78b4; stroke: #1f78b4"/>
     <use xlink:href="#m01e6af75c8" x="394.369095" y="68.165055" style="fill: #1f78b4; stroke: #1f78b4"/>
     <use xlink:href="#m01e6af75c8" x="412.926456" y="81.966478" style="fill: #1f78b4; stroke: #1f78b4"/>
     <use xlink:href="#m01e6af75c8" x="420.813223" y="99.424568" style="fill: #1f78b4; stroke: #1f78b4"/>
     <use xlink:href="#m01e6af75c8" x="415.374885" y="117.382119" style="fill: #1f78b4; stroke: #1f78b4"/>
     <use xlink:href="#m01e6af75c8" x="397.442177" y="132.808907" style="fill: #1f78b4; stroke: #1f78b4"/>
     <use xlink:href="#m01e6af75c8" x="371.58872" y="144.575952" style="fill: #1f78b4; stroke: #1f78b4"/>
     <use xlink:href="#m01e6af75c8" x="341.457715" y="152.277256" style="fill: #1f78b4; stroke: #1f78b4"/>
     <use xlink:href="#m01e6af75c8" x="308.54845" y="157.753511" style="fill: #1f78b4; stroke: #1f78b4"/>
     <use xlink:href="#m01e6af75c8" x="274.356722" y="161.914595" style="fill: #1f78b4; stroke: #1f78b4"/>
     <use xlink:href="#m01e6af75c8" x="239.3428" y="165.757437" style="fill: #1f78b4; stroke: #1f78b4"/>
     <use xlink:href="#m01e6af75c8" x="205.165197" y="170.394924" style="fill: #1f78b4; stroke: #1f78b4"/>
     <use xlink:href="#m01e6af75c8" x="171.079823" y="176.538316" style="fill: #1f78b4; stroke: #1f78b4"/>
     <use xlink:href="#m01e6af75c8" x="139.778608" y="184.70341" style="fill: #1f78b4; stroke: #1f78b4"/>
     <use xlink:href="#m01e6af75c8" x="112.662704" y="196.366058" style="fill: #1f78b4; stroke: #1f78b4"/>
     <use xlink:href="#m01e6af75c8" x="93.955969" y="212.326546" style="fill: #1f78b4; stroke: #1f78b4"/>
     <use xlink:href="#m01e6af75c8" x="89.39933" y="231.438495" style="fill: #1f78b4; stroke: #1f78b4"/>
     <use xlink:href="#m01e6af75c8" x="101.196653" y="249.203647" style="fill: #1f78b4; stroke: #1f78b4"/>
     <use xlink:href="#m01e6af75c8" x="123.743781" y="264.897646" style="fill: #1f78b4; stroke: #1f78b4"/>
     <use xlink:href="#m01e6af75c8" x="152.203651" y="280.234047" style="fill: #1f78b4; stroke: #1f78b4"/>
     <use xlink:href="#m01e6af75c8" x="184.138837" y="296.644019" style="fill: #1f78b4; stroke: #1f78b4"/>
     <use xlink:href="#m01e6af75c8" x="217.698843" y="308.062915" style="fill: #1f78b4; stroke: #1f78b4"/>
     <use xlink:href="#m01e6af75c8" x="252.227764" y="314.432649" style="fill: #1f78b4; stroke: #1f78b4"/>
     <use xlink:href="#m01e6af75c8" x="286.102241" y="315.609917" style="fill: #1f78b4; stroke: #1f78b4"/>
     <use xlink:href="#m01e6af75c8" x="317.199571" y="311.279012" style="fill: #1f78b4; stroke: #1f78b4"/>
     <use xlink:href="#m01e6af75c8" x="342.07099" y="300.644962" style="fill: #1f78b4; stroke: #1f78b4"/>
     <use xlink:href="#m01e6af75c8" x="356.434199" y="286.373608" style="fill: #1f78b4; stroke: #1f78b4"/>
     <use xlink:href="#m01e6af75c8" x="350.217125" y="273.594401" style="fill: #1f78b4; stroke: #1f78b4"/>
     <use xlink:href="#m01e6af75c8" x="327.653704" y="267.778544" style="fill: #1f78b4; stroke: #1f78b4"/>
     <use xlink:href="#m01e6af75c8" x="299.834603" y="266.773501" style="fill: #1f78b4; stroke: #1f78b4"/>
     <use xlink:href="#m01e6af75c8" x="269.858614" y="269.027902" style="fill: #1f78b4; stroke: #1f78b4"/>
     <use xlink:href="#m01e6af75c8" x="239.157116" y="273.920824" style="fill: #1f78b4; stroke: #1f78b4"/>
     <use xlink:href="#m01e6af75c8" x="208.562362" y="280.901799" style="fill: #1f78b4; stroke: #1f78b4"/>
     <use xlink:href="#m01e6af75c8" x="178.543377" y="289.208409" style="fill: #1f78b4; stroke: #1f78b4"/>
     <use xlink:href="#m01e6af75c8" x="152.228108" y="298.616158" style="fill: #1f78b4; stroke: #1f78b4"/>
     <use xlink:href="#m01e6af75c8" x="130.08647" y="299.658372" style="fill: #1f78b4; stroke: #1f78b4"/>
    </g>
   </g>
   <g id="text_1">
    <g clip-path="url(#p1bd5b297f3)">
     <!-- 1 -->
     <g style="fill: #ffffff" transform="translate(37.441777 94.397961) scale(0.08 -0.08)">
      <defs>
       <path id="DejaVuSans-31" d="M 794 531 
L 1825 531 
L 1825 4091 
L 703 3866 
L 703 4441 
L 1819 4666 
L 2450 4666 
L 2450 531 
L 3481 531 
L 3481 0 
L 794 0 
L 794 531 
z
" transform="scale(0.015625)"/>
      </defs>
      <use xlink:href="#DejaVuSans-31"/>
     </g>
    </g>
   </g>
   <g id="text_2">
    <g clip-path="url(#p1bd5b297f3)">
     <!-- 2 -->
     <g style="fill: #ffffff" transform="translate(60.147671 97.869951) scale(0.08 -0.08)">
      <defs>
       <path id="DejaVuSans-32" d="M 1228 531 
L 3431 531 
L 3431 0 
L 469 0 
L 469 531 
Q 828 903 1448 1529 
Q 2069 2156 2228 2338 
Q 2531 2678 2651 2914 
Q 2772 3150 2772 3378 
Q 2772 3750 2511 3984 
Q 2250 4219 1831 4219 
Q 1534 4219 1204 4116 
Q 875 4013 500 3803 
L 500 4441 
Q 881 4594 1212 4672 
Q 1544 4750 1819 4750 
Q 2544 4750 2975 4387 
Q 3406 4025 3406 3419 
Q 3406 3131 3298 2873 
Q 3191 2616 2906 2266 
Q 2828 2175 2409 1742 
Q 1991 1309 1228 531 
z
" transform="scale(0.015625)"/>
      </defs>
      <use xlink:href="#DejaVuSans-32"/>
     </g>
    </g>
   </g>
   <g id="text_3">
    <g clip-path="url(#p1bd5b297f3)">
     <!-- 3 -->
     <g style="fill: #ffffff" transform="translate(78.378215 88.186147) scale(0.08 -0.08)">
      <defs>
       <path id="DejaVuSans-33" d="M 2597 2516 
Q 3050 2419 3304 2112 
Q 3559 1806 3559 1356 
Q 3559 666 3084 287 
Q 2609 -91 1734 -91 
Q 1441 -91 1130 -33 
Q 819 25 488 141 
L 488 750 
Q 750 597 1062 519 
Q 1375 441 1716 441 
Q 2309 441 2620 675 
Q 2931 909 2931 1356 
Q 2931 1769 2642 2001 
Q 2353 2234 1838 2234 
L 1294 2234 
L 1294 2753 
L 1863 2753 
Q 2328 2753 2575 2939 
Q 2822 3125 2822 3475 
Q 2822 3834 2567 4026 
Q 2313 4219 1838 4219 
Q 1578 4219 1281 4162 
Q 984 4106 628 3988 
L 628 4550 
Q 988 4650 1302 4700 
Q 1616 4750 1894 4750 
Q 2613 4750 3031 4423 
Q 3450 4097 3450 3541 
Q 3450 3153 3228 2886 
Q 3006 2619 2597 2516 
z
" transform="scale(0.015625)"/>
      </defs>
      <use xlink:href="#DejaVuSans-33"/>
     </g>
    </g>
   </g>
   <g id="text_4">
    <g clip-path="url(#p1bd5b297f3)">
     <!-- 4 -->
     <g style="fill: #ffffff" transform="translate(98.355313 77.636934) scale(0.08 -0.08)">
      <defs>
       <path id="DejaVuSans-34" d="M 2419 4116 
L 825 1625 
L 2419 1625 
L 2419 4116 
z
M 2253 4666 
L 3047 4666 
L 3047 1625 
L 3713 1625 
L 3713 1100 
L 3047 1100 
L 3047 0 
L 2419 0 
L 2419 1100 
L 313 1100 
L 313 1709 
L 2253 4666 
z
" transform="scale(0.015625)"/>
      </defs>
      <use xlink:href="#DejaVuSans-34"/>
     </g>
    </g>
   </g>
   <g id="text_5">
    <g clip-path="url(#p1bd5b297f3)">
     <!-- 5 -->
     <g style="fill: #ffffff" transform="translate(118.605622 66.306753) scale(0.08 -0.08)">
      <defs>
       <path id="DejaVuSans-35" d="M 691 4666 
L 3169 4666 
L 3169 4134 
L 1269 4134 
L 1269 2991 
Q 1406 3038 1543 3061 
Q 1681 3084 1819 3084 
Q 2600 3084 3056 2656 
Q 3513 2228 3513 1497 
Q 3513 744 3044 326 
Q 2575 -91 1722 -91 
Q 1428 -91 1123 -41 
Q 819 9 494 109 
L 494 744 
Q 775 591 1075 516 
Q 1375 441 1709 441 
Q 2250 441 2565 725 
Q 2881 1009 2881 1497 
Q 2881 1984 2565 2268 
Q 2250 2553 1709 2553 
Q 1456 2553 1204 2497 
Q 953 2441 691 2322 
L 691 4666 
z
" transform="scale(0.015625)"/>
      </defs>
      <use xlink:href="#DejaVuSans-35"/>
     </g>
    </g>
   </g>
   <g id="text_6">
    <g clip-path="url(#p1bd5b297f3)">
     <!-- 6 -->
     <g style="fill: #ffffff" transform="translate(139.337413 55.087987) scale(0.08 -0.08)">
      <defs>
       <path id="DejaVuSans-36" d="M 2113 2584 
Q 1688 2584 1439 2293 
Q 1191 2003 1191 1497 
Q 1191 994 1439 701 
Q 1688 409 2113 409 
Q 2538 409 2786 701 
Q 3034 994 3034 1497 
Q 3034 2003 2786 2293 
Q 2538 2584 2113 2584 
z
M 3366 4563 
L 3366 3988 
Q 3128 4100 2886 4159 
Q 2644 4219 2406 4219 
Q 1781 4219 1451 3797 
Q 1122 3375 1075 2522 
Q 1259 2794 1537 2939 
Q 1816 3084 2150 3084 
Q 2853 3084 3261 2657 
Q 3669 2231 3669 1497 
Q 3669 778 3244 343 
Q 2819 -91 2113 -91 
Q 1303 -91 875 529 
Q 447 1150 447 2328 
Q 447 3434 972 4092 
Q 1497 4750 2381 4750 
Q 2619 4750 2861 4703 
Q 3103 4656 3366 4563 
z
" transform="scale(0.015625)"/>
      </defs>
      <use xlink:href="#DejaVuSans-36"/>
     </g>
    </g>
   </g>
   <g id="text_7">
    <g clip-path="url(#p1bd5b297f3)">
     <!-- 7 -->
     <g style="fill: #ffffff" transform="translate(154.23931 39.736891) scale(0.08 -0.08)">
      <defs>
       <path id="DejaVuSans-37" d="M 525 4666 
L 3525 4666 
L 3525 4397 
L 1831 0 
L 1172 0 
L 2766 4134 
L 525 4134 
L 525 4666 
z
" transform="scale(0.015625)"/>
      </defs>
      <use xlink:href="#DejaVuSans-37"/>
     </g>
    </g>
   </g>
   <g id="text_8">
    <g clip-path="url(#p1bd5b297f3)">
     <!-- 8 -->
     <g style="fill: #ffffff" transform="translate(176.879251 32.197583) scale(0.08 -0.08)">
      <defs>
       <path id="DejaVuSans-38" d="M 2034 2216 
Q 1584 2216 1326 1975 
Q 1069 1734 1069 1313 
Q 1069 891 1326 650 
Q 1584 409 2034 409 
Q 2484 409 2743 651 
Q 3003 894 3003 1313 
Q 3003 1734 2745 1975 
Q 2488 2216 2034 2216 
z
M 1403 2484 
Q 997 2584 770 2862 
Q 544 3141 544 3541 
Q 544 4100 942 4425 
Q 1341 4750 2034 4750 
Q 2731 4750 3128 4425 
Q 3525 4100 3525 3541 
Q 3525 3141 3298 2862 
Q 3072 2584 2669 2484 
Q 3125 2378 3379 2068 
Q 3634 1759 3634 1313 
Q 3634 634 3220 271 
Q 2806 -91 2034 -91 
Q 1263 -91 848 271 
Q 434 634 434 1313 
Q 434 1759 690 2068 
Q 947 2378 1403 2484 
z
M 1172 3481 
Q 1172 3119 1398 2916 
Q 1625 2713 2034 2713 
Q 2441 2713 2670 2916 
Q 2900 3119 2900 3481 
Q 2900 3844 2670 4047 
Q 2441 4250 2034 4250 
Q 1625 4250 1398 4047 
Q 1172 3844 1172 3481 
z
" transform="scale(0.015625)"/>
      </defs>
      <use xlink:href="#DejaVuSans-38"/>
     </g>
    </g>
   </g>
   <g id="text_9">
    <g clip-path="url(#p1bd5b297f3)">
     <!-- 9 -->
     <g style="fill: #ffffff" transform="translate(202.109847 35.857782) scale(0.08 -0.08)">
      <defs>
       <path id="DejaVuSans-39" d="M 703 97 
L 703 672 
Q 941 559 1184 500 
Q 1428 441 1663 441 
Q 2288 441 2617 861 
Q 2947 1281 2994 2138 
Q 2813 1869 2534 1725 
Q 2256 1581 1919 1581 
Q 1219 1581 811 2004 
Q 403 2428 403 3163 
Q 403 3881 828 4315 
Q 1253 4750 1959 4750 
Q 2769 4750 3195 4129 
Q 3622 3509 3622 2328 
Q 3622 1225 3098 567 
Q 2575 -91 1691 -91 
Q 1453 -91 1209 -44 
Q 966 3 703 97 
z
M 1959 2075 
Q 2384 2075 2632 2365 
Q 2881 2656 2881 3163 
Q 2881 3666 2632 3958 
Q 2384 4250 1959 4250 
Q 1534 4250 1286 3958 
Q 1038 3666 1038 3163 
Q 1038 2656 1286 2365 
Q 1534 2075 1959 2075 
z
" transform="scale(0.015625)"/>
      </defs>
      <use xlink:href="#DejaVuSans-39"/>
     </g>
    </g>
   </g>
   <g id="text_10">
    <g clip-path="url(#p1bd5b297f3)">
     <!-- 10 -->
     <g style="fill: #ffffff" transform="translate(221.976528 47.729926) scale(0.08 -0.08)">
      <defs>
       <path id="DejaVuSans-30" d="M 2034 4250 
Q 1547 4250 1301 3770 
Q 1056 3291 1056 2328 
Q 1056 1369 1301 889 
Q 1547 409 2034 409 
Q 2525 409 2770 889 
Q 3016 1369 3016 2328 
Q 3016 3291 2770 3770 
Q 2525 4250 2034 4250 
z
M 2034 4750 
Q 2819 4750 3233 4129 
Q 3647 3509 3647 2328 
Q 3647 1150 3233 529 
Q 2819 -91 2034 -91 
Q 1250 -91 836 529 
Q 422 1150 422 2328 
Q 422 3509 836 4129 
Q 1250 4750 2034 4750 
z
" transform="scale(0.015625)"/>
      </defs>
      <use xlink:href="#DejaVuSans-31"/>
      <use xlink:href="#DejaVuSans-30" x="63.623047"/>
     </g>
    </g>
   </g>
   <g id="text_11">
    <g clip-path="url(#p1bd5b297f3)">
     <!-- 11 -->
     <g style="fill: #ffffff" transform="translate(245.536727 58.360364) scale(0.08 -0.08)">
      <use xlink:href="#DejaVuSans-31"/>
      <use xlink:href="#DejaVuSans-31" x="63.623047"/>
     </g>
    </g>
   </g>
   <g id="text_12">
    <g clip-path="url(#p1bd5b297f3)">
     <!-- 12 -->
     <g style="fill: #ffffff" transform="translate(272.762623 63.632054) scale(0.08 -0.08)">
      <use xlink:href="#DejaVuSans-31"/>
      <use xlink:href="#DejaVuSans-32" x="63.623047"/>
     </g>
    </g>
   </g>
   <g id="text_13">
    <g clip-path="url(#p1bd5b297f3)">
     <!-- 13 -->
     <g style="fill: #ffffff" transform="translate(302.466822 63.356445) scale(0.08 -0.08)">
      <use xlink:href="#DejaVuSans-31"/>
      <use xlink:href="#DejaVuSans-33" x="63.623047"/>
     </g>
    </g>
   </g>
   <g id="text_14">
    <g clip-path="url(#p1bd5b297f3)">
     <!-- 14 -->
     <g style="fill: #ffffff" transform="translate(333.39357 60.775) scale(0.08 -0.08)">
      <use xlink:href="#DejaVuSans-31"/>
      <use xlink:href="#DejaVuSans-34" x="63.623047"/>
     </g>
    </g>
   </g>
   <g id="text_15">
    <g clip-path="url(#p1bd5b297f3)">
     <!-- 15 -->
     <g style="fill: #ffffff" transform="translate(363.290615 62.416137) scale(0.08 -0.08)">
      <use xlink:href="#DejaVuSans-31"/>
      <use xlink:href="#DejaVuSans-35" x="63.623047"/>
     </g>
    </g>
   </g>
   <g id="text_16">
    <g clip-path="url(#p1bd5b297f3)">
     <!-- 16 -->
     <g style="fill: #ffffff" transform="translate(389.279095 70.372555) scale(0.08 -0.08)">
      <use xlink:href="#DejaVuSans-31"/>
      <use xlink:href="#DejaVuSans-36" x="63.623047"/>
     </g>
    </g>
   </g>
   <g id="text_17">
    <g clip-path="url(#p1bd5b297f3)">
     <!-- 17 -->
     <g style="fill: #ffffff" transform="translate(407.836456 84.173978) scale(0.08 -0.08)">
      <use xlink:href="#DejaVuSans-31"/>
      <use xlink:href="#DejaVuSans-37" x="63.623047"/>
     </g>
    </g>
   </g>
   <g id="text_18">
    <g clip-path="url(#p1bd5b297f3)">
     <!-- 18 -->
     <g style="fill: #ffffff" transform="translate(415.723223 101.632068) scale(0.08 -0.08)">
      <use xlink:href="#DejaVuSans-31"/>
      <use xlink:href="#DejaVuSans-38" x="63.623047"/>
     </g>
    </g>
   </g>
   <g id="text_19">
    <g clip-path="url(#p1bd5b297f3)">
     <!-- 19 -->
     <g style="fill: #ffffff" transform="translate(410.284885 119.589619) scale(0.08 -0.08)">
      <use xlink:href="#DejaVuSans-31"/>
      <use xlink:href="#DejaVuSans-39" x="63.623047"/>
     </g>
    </g>
   </g>
   <g id="text_20">
    <g clip-path="url(#p1bd5b297f3)">
     <!-- 20 -->
     <g style="fill: #ffffff" transform="translate(392.352177 135.016407) scale(0.08 -0.08)">
      <use xlink:href="#DejaVuSans-32"/>
      <use xlink:href="#DejaVuSans-30" x="63.623047"/>
     </g>
    </g>
   </g>
   <g id="text_21">
    <g clip-path="url(#p1bd5b297f3)">
     <!-- 21 -->
     <g style="fill: #ffffff" transform="translate(366.49872 146.783452) scale(0.08 -0.08)">
      <use xlink:href="#DejaVuSans-32"/>
      <use xlink:href="#DejaVuSans-31" x="63.623047"/>
     </g>
    </g>
   </g>
   <g id="text_22">
    <g clip-path="url(#p1bd5b297f3)">
     <!-- 22 -->
     <g style="fill: #ffffff" transform="translate(336.367715 154.484756) scale(0.08 -0.08)">
      <use xlink:href="#DejaVuSans-32"/>
      <use xlink:href="#DejaVuSans-32" x="63.623047"/>
     </g>
    </g>
   </g>
   <g id="text_23">
    <g clip-path="url(#p1bd5b297f3)">
     <!-- 23 -->
     <g style="fill: #ffffff" transform="translate(303.45845 159.961011) scale(0.08 -0.08)">
      <use xlink:href="#DejaVuSans-32"/>
      <use xlink:href="#DejaVuSans-33" x="63.623047"/>
     </g>
    </g>
   </g>
   <g id="text_24">
    <g clip-path="url(#p1bd5b297f3)">
     <!-- 24 -->
     <g style="fill: #ffffff" transform="translate(269.266722 164.122095) scale(0.08 -0.08)">
      <use xlink:href="#DejaVuSans-32"/>
      <use xlink:href="#DejaVuSans-34" x="63.623047"/>
     </g>
    </g>
   </g>
   <g id="text_25">
    <g clip-path="url(#p1bd5b297f3)">
     <!-- 25 -->
     <g style="fill: #ffffff" transform="translate(234.2528 167.964937) scale(0.08 -0.08)">
      <use xlink:href="#DejaVuSans-32"/>
      <use xlink:href="#DejaVuSans-35" x="63.623047"/>
     </g>
    </g>
   </g>
   <g id="text_26">
    <g clip-path="url(#p1bd5b297f3)">
     <!-- 26 -->
     <g style="fill: #ffffff" transform="translate(200.075197 172.602424) scale(0.08 -0.08)">
      <use xlink:href="#DejaVuSans-32"/>
      <use xlink:href="#DejaVuSans-36" x="63.623047"/>
     </g>
    </g>
   </g>
   <g id="text_27">
    <g clip-path="url(#p1bd5b297f3)">
     <!-- 27 -->
     <g style="fill: #ffffff" transform="translate(165.989823 178.745816) scale(0.08 -0.08)">
      <use xlink:href="#DejaVuSans-32"/>
      <use xlink:href="#DejaVuSans-37" x="63.623047"/>
     </g>
    </g>
   </g>
   <g id="text_28">
    <g clip-path="url(#p1bd5b297f3)">
     <!-- 28 -->
     <g style="fill: #ffffff" transform="translate(134.688608 186.91091) scale(0.08 -0.08)">
      <use xlink:href="#DejaVuSans-32"/>
      <use xlink:href="#DejaVuSans-38" x="63.623047"/>
     </g>
    </g>
   </g>
   <g id="text_29">
    <g clip-path="url(#p1bd5b297f3)">
     <!-- 29 -->
     <g style="fill: #ffffff" transform="translate(107.572704 198.573558) scale(0.08 -0.08)">
      <use xlink:href="#DejaVuSans-32"/>
      <use xlink:href="#DejaVuSans-39" x="63.623047"/>
     </g>
    </g>
   </g>
   <g id="text_30">
    <g clip-path="url(#p1bd5b297f3)">
     <!-- 30 -->
     <g style="fill: #ffffff" transform="translate(88.865969 214.534046) scale(0.08 -0.08)">
      <use xlink:href="#DejaVuSans-33"/>
      <use xlink:href="#DejaVuSans-30" x="63.623047"/>
     </g>
    </g>
   </g>
   <g id="text_31">
    <g clip-path="url(#p1bd5b297f3)">
     <!-- 31 -->
     <g style="fill: #ffffff" transform="translate(84.30933 233.645995) scale(0.08 -0.08)">
      <use xlink:href="#DejaVuSans-33"/>
      <use xlink:href="#DejaVuSans-31" x="63.623047"/>
     </g>
    </g>
   </g>
   <g id="text_32">
    <g clip-path="url(#p1bd5b297f3)">
     <!-- 32 -->
     <g style="fill: #ffffff" transform="translate(96.106653 251.411147) scale(0.08 -0.08)">
      <use xlink:href="#DejaVuSans-33"/>
      <use xlink:href="#DejaVuSans-32" x="63.623047"/>
     </g>
    </g>
   </g>
   <g id="text_33">
    <g clip-path="url(#p1bd5b297f3)">
     <!-- 33 -->
     <g style="fill: #ffffff" transform="translate(118.653781 267.105146) scale(0.08 -0.08)">
      <use xlink:href="#DejaVuSans-33"/>
      <use xlink:href="#DejaVuSans-33" x="63.623047"/>
     </g>
    </g>
   </g>
   <g id="text_34">
    <g clip-path="url(#p1bd5b297f3)">
     <!-- 34 -->
     <g style="fill: #ffffff" transform="translate(147.113651 282.441547) scale(0.08 -0.08)">
      <use xlink:href="#DejaVuSans-33"/>
      <use xlink:href="#DejaVuSans-34" x="63.623047"/>
     </g>
    </g>
   </g>
   <g id="text_35">
    <g clip-path="url(#p1bd5b297f3)">
     <!-- 35 -->
     <g style="fill: #ffffff" transform="translate(179.048837 298.851519) scale(0.08 -0.08)">
      <use xlink:href="#DejaVuSans-33"/>
      <use xlink:href="#DejaVuSans-35" x="63.623047"/>
     </g>
    </g>
   </g>
   <g id="text_36">
    <g clip-path="url(#p1bd5b297f3)">
     <!-- 36 -->
     <g style="fill: #ffffff" transform="translate(212.608843 310.270415) scale(0.08 -0.08)">
      <use xlink:href="#DejaVuSans-33"/>
      <use xlink:href="#DejaVuSans-36" x="63.623047"/>
     </g>
    </g>
   </g>
   <g id="text_37">
    <g clip-path="url(#p1bd5b297f3)">
     <!-- 37 -->
     <g style="fill: #ffffff" transform="translate(247.137764 316.640149) scale(0.08 -0.08)">
      <use xlink:href="#DejaVuSans-33"/>
      <use xlink:href="#DejaVuSans-37" x="63.623047"/>
     </g>
    </g>
   </g>
   <g id="text_38">
    <g clip-path="url(#p1bd5b297f3)">
     <!-- 38 -->
     <g style="fill: #ffffff" transform="translate(281.012241 317.817417) scale(0.08 -0.08)">
      <use xlink:href="#DejaVuSans-33"/>
      <use xlink:href="#DejaVuSans-38" x="63.623047"/>
     </g>
    </g>
   </g>
   <g id="text_39">
    <g clip-path="url(#p1bd5b297f3)">
     <!-- 39 -->
     <g style="fill: #ffffff" transform="translate(312.109571 313.486512) scale(0.08 -0.08)">
      <use xlink:href="#DejaVuSans-33"/>
      <use xlink:href="#DejaVuSans-39" x="63.623047"/>
     </g>
    </g>
   </g>
   <g id="text_40">
    <g clip-path="url(#p1bd5b297f3)">
     <!-- 40 -->
     <g style="fill: #ffffff" transform="translate(336.98099 302.852462) scale(0.08 -0.08)">
      <use xlink:href="#DejaVuSans-34"/>
      <use xlink:href="#DejaVuSans-30" x="63.623047"/>
     </g>
    </g>
   </g>
   <g id="text_41">
    <g clip-path="url(#p1bd5b297f3)">
     <!-- 41 -->
     <g style="fill: #ffffff" transform="translate(351.344199 288.581108) scale(0.08 -0.08)">
      <use xlink:href="#DejaVuSans-34"/>
      <use xlink:href="#DejaVuSans-31" x="63.623047"/>
     </g>
    </g>
   </g>
   <g id="text_42">
    <g clip-path="url(#p1bd5b297f3)">
     <!-- 42 -->
     <g style="fill: #ffffff" transform="translate(345.127125 275.801901) scale(0.08 -0.08)">
      <use xlink:href="#DejaVuSans-34"/>
      <use xlink:href="#DejaVuSans-32" x="63.623047"/>
     </g>
    </g>
   </g>
   <g id="text_43">
    <g clip-path="url(#p1bd5b297f3)">
     <!-- 43 -->
     <g style="fill: #ffffff" transform="translate(322.563704 269.986044) scale(0.08 -0.08)">
      <use xlink:href="#DejaVuSans-34"/>
      <use xlink:href="#DejaVuSans-33" x="63.623047"/>
     </g>
    </g>
   </g>
   <g id="text_44">
    <g clip-path="url(#p1bd5b297f3)">
     <!-- 44 -->
     <g style="fill: #ffffff" transform="translate(294.744603 268.981001) scale(0.08 -0.08)">
      <use xlink:href="#DejaVuSans-34"/>
      <use xlink:href="#DejaVuSans-34" x="63.623047"/>
     </g>
    </g>
   </g>
   <g id="text_45">
    <g clip-path="url(#p1bd5b297f3)">
     <!-- 45 -->
     <g style="fill: #ffffff" transform="translate(264.768614 271.235402) scale(0.08 -0.08)">
      <use xlink:href="#DejaVuSans-34"/>
      <use xlink:href="#DejaVuSans-35" x="63.623047"/>
     </g>
    </g>
   </g>
   <g id="text_46">
    <g clip-path="url(#p1bd5b297f3)">
     <!-- 46 -->
     <g style="fill: #ffffff" transform="translate(234.067116 276.128324) scale(0.08 -0.08)">
      <use xlink:href="#DejaVuSans-34"/>
      <use xlink:href="#DejaVuSans-36" x="63.623047"/>
     </g>
    </g>
   </g>
   <g id="text_47">
    <g clip-path="url(#p1bd5b297f3)">
     <!-- 47 -->
     <g style="fill: #ffffff" transform="translate(203.472362 283.109299) scale(0.08 -0.08)">
      <use xlink:href="#DejaVuSans-34"/>
      <use xlink:href="#DejaVuSans-37" x="63.623047"/>
     </g>
    </g>
   </g>
   <g id="text_48">
    <g clip-path="url(#p1bd5b297f3)">
     <!-- 48 -->
     <g style="fill: #ffffff" transform="translate(173.453377 291.415909) scale(0.08 -0.08)">
      <use xlink:href="#DejaVuSans-34"/>
      <use xlink:href="#DejaVuSans-38" x="63.623047"/>
     </g>
    </g>
   </g>
   <g id="text_49">
    <g clip-path="url(#p1bd5b297f3)">
     <!-- 49 -->
     <g style="fill: #ffffff" transform="translate(147.138108 300.823658) scale(0.08 -0.08)">
      <use xlink:href="#DejaVuSans-34"/>
      <use xlink:href="#DejaVuSans-39" x="63.623047"/>
     </g>
    </g>
   </g>
   <g id="text_50">
    <g clip-path="url(#p1bd5b297f3)">
     <!-- 50 -->
     <g style="fill: #ffffff" transform="translate(124.99647 301.865872) scale(0.08 -0.08)">
      <use xlink:href="#DejaVuSans-35"/>
      <use xlink:href="#DejaVuSans-30" x="63.623047"/>
     </g>
    </g>
   </g>
  </g>
 </g>
 <defs>
  <clipPath id="p1bd5b297f3">
   <rect x="0" y="0" width="460.8" height="345.6"/>
  </clipPath>
 </defs>
</svg>
