<?xml version="1.0" encoding="utf-8" standalone="no"?>
<!DOCTYPE svg PUBLIC "-//W3C//DTD SVG 1.1//EN"
  "http://www.w3.org/Graphics/SVG/1.1/DTD/svg11.dtd">
<svg xmlns:xlink="http://www.w3.org/1999/xlink" width="460.8pt" height="345.6pt" viewBox="0 0 460.8 345.6" xmlns="http://www.w3.org/2000/svg" version="1.1">
 <metadata>
  <rdf:RDF xmlns:dc="http://purl.org/dc/elements/1.1/" xmlns:cc="http://creativecommons.org/ns#" xmlns:rdf="http://www.w3.org/1999/02/22-rdf-syntax-ns#">
   <cc:Work>
    <dc:type rdf:resource="http://purl.org/dc/dcmitype/StillImage"/>
    <dc:date>2023-05-16T10:20:15.764709</dc:date>
    <dc:format>image/svg+xml</dc:format>
    <dc:creator>
     <cc:Agent>
      <dc:title>Matplotlib v3.7.1, https://matplotlib.org/</dc:title>
     </cc:Agent>
    </dc:creator>
   </cc:Work>
  </rdf:RDF>
 </metadata>
 <defs>
  <style type="text/css">*{stroke-linejoin: round; stroke-linecap: butt}</style>
 </defs>
 <g id="figure_1">
  <g id="patch_1">
   <path d="M 0 345.6 
L 460.8 345.6 
L 460.8 0 
L 0 0 
z
" style="fill: #ffffff"/>
  </g>
  <g id="axes_1">
   <g id="LineCollection_1">
    <path d="M 420.813223 172.8 
L 230.399992 29.990083 
" clip-path="url(#pf2e095164f)" style="fill: none; stroke: #000000"/>
    <path d="M 420.813223 172.8 
L 230.400002 315.609917 
" clip-path="url(#pf2e095164f)" style="fill: none; stroke: #000000"/>
    <path d="M 230.399992 29.990083 
L 39.986777 172.800012 
" clip-path="url(#pf2e095164f)" style="fill: none; stroke: #000000"/>
    <path d="M 39.986777 172.800012 
L 230.400002 315.609917 
" clip-path="url(#pf2e095164f)" style="fill: none; stroke: #000000"/>
   </g>
   <g id="text_1">
    <g id="patch_2">
     <path d="M 286.245044 81.672698 
L 355.561296 133.659884 
Q 357.961296 135.459884 359.761296 133.059884 
L 365.56817 125.317384 
Q 367.36817 122.917384 364.96817 121.117384 
L 295.651919 69.130198 
Q 293.251919 67.330198 291.451919 69.730198 
L 285.645044 77.472698 
Q 283.845044 79.872698 286.245044 81.672698 
z
" clip-path="url(#pf2e095164f)" style="fill: #ffffff; stroke: #ffffff; stroke-linejoin: miter"/>
    </g>
    <g clip-path="url(#pf2e095164f)">
     <!-- Connection (1, 2) -->
     <g transform="translate(289.292857 77.608948) rotate(-323.130104) scale(0.1 -0.1)">
      <defs>
       <path id="DejaVuSans-43" d="M 4122 4306 
L 4122 3641 
Q 3803 3938 3442 4084 
Q 3081 4231 2675 4231 
Q 1875 4231 1450 3742 
Q 1025 3253 1025 2328 
Q 1025 1406 1450 917 
Q 1875 428 2675 428 
Q 3081 428 3442 575 
Q 3803 722 4122 1019 
L 4122 359 
Q 3791 134 3420 21 
Q 3050 -91 2638 -91 
Q 1578 -91 968 557 
Q 359 1206 359 2328 
Q 359 3453 968 4101 
Q 1578 4750 2638 4750 
Q 3056 4750 3426 4639 
Q 3797 4528 4122 4306 
z
" transform="scale(0.015625)"/>
       <path id="DejaVuSans-6f" d="M 1959 3097 
Q 1497 3097 1228 2736 
Q 959 2375 959 1747 
Q 959 1119 1226 758 
Q 1494 397 1959 397 
Q 2419 397 2687 759 
Q 2956 1122 2956 1747 
Q 2956 2369 2687 2733 
Q 2419 3097 1959 3097 
z
M 1959 3584 
Q 2709 3584 3137 3096 
Q 3566 2609 3566 1747 
Q 3566 888 3137 398 
Q 2709 -91 1959 -91 
Q 1206 -91 779 398 
Q 353 888 353 1747 
Q 353 2609 779 3096 
Q 1206 3584 1959 3584 
z
" transform="scale(0.015625)"/>
       <path id="DejaVuSans-6e" d="M 3513 2113 
L 3513 0 
L 2938 0 
L 2938 2094 
Q 2938 2591 2744 2837 
Q 2550 3084 2163 3084 
Q 1697 3084 1428 2787 
Q 1159 2491 1159 1978 
L 1159 0 
L 581 0 
L 581 3500 
L 1159 3500 
L 1159 2956 
Q 1366 3272 1645 3428 
Q 1925 3584 2291 3584 
Q 2894 3584 3203 3211 
Q 3513 2838 3513 2113 
z
" transform="scale(0.015625)"/>
       <path id="DejaVuSans-65" d="M 3597 1894 
L 3597 1613 
L 953 1613 
Q 991 1019 1311 708 
Q 1631 397 2203 397 
Q 2534 397 2845 478 
Q 3156 559 3463 722 
L 3463 178 
Q 3153 47 2828 -22 
Q 2503 -91 2169 -91 
Q 1331 -91 842 396 
Q 353 884 353 1716 
Q 353 2575 817 3079 
Q 1281 3584 2069 3584 
Q 2775 3584 3186 3129 
Q 3597 2675 3597 1894 
z
M 3022 2063 
Q 3016 2534 2758 2815 
Q 2500 3097 2075 3097 
Q 1594 3097 1305 2825 
Q 1016 2553 972 2059 
L 3022 2063 
z
" transform="scale(0.015625)"/>
       <path id="DejaVuSans-63" d="M 3122 3366 
L 3122 2828 
Q 2878 2963 2633 3030 
Q 2388 3097 2138 3097 
Q 1578 3097 1268 2742 
Q 959 2388 959 1747 
Q 959 1106 1268 751 
Q 1578 397 2138 397 
Q 2388 397 2633 464 
Q 2878 531 3122 666 
L 3122 134 
Q 2881 22 2623 -34 
Q 2366 -91 2075 -91 
Q 1284 -91 818 406 
Q 353 903 353 1747 
Q 353 2603 823 3093 
Q 1294 3584 2113 3584 
Q 2378 3584 2631 3529 
Q 2884 3475 3122 3366 
z
" transform="scale(0.015625)"/>
       <path id="DejaVuSans-74" d="M 1172 4494 
L 1172 3500 
L 2356 3500 
L 2356 3053 
L 1172 3053 
L 1172 1153 
Q 1172 725 1289 603 
Q 1406 481 1766 481 
L 2356 481 
L 2356 0 
L 1766 0 
Q 1100 0 847 248 
Q 594 497 594 1153 
L 594 3053 
L 172 3053 
L 172 3500 
L 594 3500 
L 594 4494 
L 1172 4494 
z
" transform="scale(0.015625)"/>
       <path id="DejaVuSans-69" d="M 603 3500 
L 1178 3500 
L 1178 0 
L 603 0 
L 603 3500 
z
M 603 4863 
L 1178 4863 
L 1178 4134 
L 603 4134 
L 603 4863 
z
" transform="scale(0.015625)"/>
       <path id="DejaVuSans-20" transform="scale(0.015625)"/>
       <path id="DejaVuSans-28" d="M 1984 4856 
Q 1566 4138 1362 3434 
Q 1159 2731 1159 2009 
Q 1159 1288 1364 580 
Q 1569 -128 1984 -844 
L 1484 -844 
Q 1016 -109 783 600 
Q 550 1309 550 2009 
Q 550 2706 781 3412 
Q 1013 4119 1484 4856 
L 1984 4856 
z
" transform="scale(0.015625)"/>
       <path id="DejaVuSans-31" d="M 794 531 
L 1825 531 
L 1825 4091 
L 703 3866 
L 703 4441 
L 1819 4666 
L 2450 4666 
L 2450 531 
L 3481 531 
L 3481 0 
L 794 0 
L 794 531 
z
" transform="scale(0.015625)"/>
       <path id="DejaVuSans-2c" d="M 750 794 
L 1409 794 
L 1409 256 
L 897 -744 
L 494 -744 
L 750 256 
L 750 794 
z
" transform="scale(0.015625)"/>
       <path id="DejaVuSans-32" d="M 1228 531 
L 3431 531 
L 3431 0 
L 469 0 
L 469 531 
Q 828 903 1448 1529 
Q 2069 2156 2228 2338 
Q 2531 2678 2651 2914 
Q 2772 3150 2772 3378 
Q 2772 3750 2511 3984 
Q 2250 4219 1831 4219 
Q 1534 4219 1204 4116 
Q 875 4013 500 3803 
L 500 4441 
Q 881 4594 1212 4672 
Q 1544 4750 1819 4750 
Q 2544 4750 2975 4387 
Q 3406 4025 3406 3419 
Q 3406 3131 3298 2873 
Q 3191 2616 2906 2266 
Q 2828 2175 2409 1742 
Q 1991 1309 1228 531 
z
" transform="scale(0.015625)"/>
       <path id="DejaVuSans-29" d="M 513 4856 
L 1013 4856 
Q 1481 4119 1714 3412 
Q 1947 2706 1947 2009 
Q 1947 1309 1714 600 
Q 1481 -109 1013 -844 
L 513 -844 
Q 928 -128 1133 580 
Q 1338 1288 1338 2009 
Q 1338 2731 1133 3434 
Q 928 4138 513 4856 
z
" transform="scale(0.015625)"/>
      </defs>
      <use xlink:href="#DejaVuSans-43"/>
      <use xlink:href="#DejaVuSans-6f" x="69.824219"/>
      <use xlink:href="#DejaVuSans-6e" x="131.005859"/>
      <use xlink:href="#DejaVuSans-6e" x="194.384766"/>
      <use xlink:href="#DejaVuSans-65" x="257.763672"/>
      <use xlink:href="#DejaVuSans-63" x="319.287109"/>
      <use xlink:href="#DejaVuSans-74" x="374.267578"/>
      <use xlink:href="#DejaVuSans-69" x="413.476562"/>
      <use xlink:href="#DejaVuSans-6f" x="441.259766"/>
      <use xlink:href="#DejaVuSans-6e" x="502.441406"/>
      <use xlink:href="#DejaVuSans-20" x="565.820312"/>
      <use xlink:href="#DejaVuSans-28" x="597.607422"/>
      <use xlink:href="#DejaVuSans-31" x="636.621094"/>
      <use xlink:href="#DejaVuSans-2c" x="700.244141"/>
      <use xlink:href="#DejaVuSans-20" x="732.03125"/>
      <use xlink:href="#DejaVuSans-32" x="763.818359"/>
      <use xlink:href="#DejaVuSans-29" x="827.441406"/>
     </g>
    </g>
   </g>
   <g id="text_2">
    <g id="patch_3">
     <path d="M 295.651925 276.469803 
L 364.968175 224.482615 
Q 367.368175 222.682615 365.568175 220.282615 
L 359.7613 212.540115 
Q 357.9613 210.140115 355.5613 211.940115 
L 286.24505 263.927303 
Q 283.84505 265.727303 285.64505 268.127303 
L 291.451925 275.869803 
Q 293.251925 278.269803 295.651925 276.469803 
z
" clip-path="url(#pf2e095164f)" style="fill: #ffffff; stroke: #ffffff; stroke-linejoin: miter"/>
    </g>
    <g clip-path="url(#pf2e095164f)">
     <!-- Connection (1, 4) -->
     <g transform="translate(292.604113 272.406053) rotate(-36.869898) scale(0.1 -0.1)">
      <defs>
       <path id="DejaVuSans-34" d="M 2419 4116 
L 825 1625 
L 2419 1625 
L 2419 4116 
z
M 2253 4666 
L 3047 4666 
L 3047 1625 
L 3713 1625 
L 3713 1100 
L 3047 1100 
L 3047 0 
L 2419 0 
L 2419 1100 
L 313 1100 
L 313 1709 
L 2253 4666 
z
" transform="scale(0.015625)"/>
      </defs>
      <use xlink:href="#DejaVuSans-43"/>
      <use xlink:href="#DejaVuSans-6f" x="69.824219"/>
      <use xlink:href="#DejaVuSans-6e" x="131.005859"/>
      <use xlink:href="#DejaVuSans-6e" x="194.384766"/>
      <use xlink:href="#DejaVuSans-65" x="257.763672"/>
      <use xlink:href="#DejaVuSans-63" x="319.287109"/>
      <use xlink:href="#DejaVuSans-74" x="374.267578"/>
      <use xlink:href="#DejaVuSans-69" x="413.476562"/>
      <use xlink:href="#DejaVuSans-6f" x="441.259766"/>
      <use xlink:href="#DejaVuSans-6e" x="502.441406"/>
      <use xlink:href="#DejaVuSans-20" x="565.820312"/>
      <use xlink:href="#DejaVuSans-28" x="597.607422"/>
      <use xlink:href="#DejaVuSans-31" x="636.621094"/>
      <use xlink:href="#DejaVuSans-2c" x="700.244141"/>
      <use xlink:href="#DejaVuSans-20" x="732.03125"/>
      <use xlink:href="#DejaVuSans-34" x="763.818359"/>
      <use xlink:href="#DejaVuSans-29" x="827.441406"/>
     </g>
    </g>
   </g>
   <g id="text_3">
    <g id="patch_4">
     <path d="M 105.238699 133.659893 
L 174.554946 81.672701 
Q 176.954945 79.872701 175.154945 77.472701 
L 169.34807 69.730202 
Q 167.54807 67.330202 165.14807 69.130202 
L 95.831823 121.117394 
Q 93.431823 122.917394 95.231823 125.317394 
L 101.038699 133.059893 
Q 102.838699 135.459893 105.238699 133.659893 
z
" clip-path="url(#pf2e095164f)" style="fill: #ffffff; stroke: #ffffff; stroke-linejoin: miter"/>
    </g>
    <g clip-path="url(#pf2e095164f)">
     <!-- Connection (2, 3) -->
     <g transform="translate(102.190886 129.596143) rotate(-36.869901) scale(0.1 -0.1)">
      <defs>
       <path id="DejaVuSans-33" d="M 2597 2516 
Q 3050 2419 3304 2112 
Q 3559 1806 3559 1356 
Q 3559 666 3084 287 
Q 2609 -91 1734 -91 
Q 1441 -91 1130 -33 
Q 819 25 488 141 
L 488 750 
Q 750 597 1062 519 
Q 1375 441 1716 441 
Q 2309 441 2620 675 
Q 2931 909 2931 1356 
Q 2931 1769 2642 2001 
Q 2353 2234 1838 2234 
L 1294 2234 
L 1294 2753 
L 1863 2753 
Q 2328 2753 2575 2939 
Q 2822 3125 2822 3475 
Q 2822 3834 2567 4026 
Q 2313 4219 1838 4219 
Q 1578 4219 1281 4162 
Q 984 4106 628 3988 
L 628 4550 
Q 988 4650 1302 4700 
Q 1616 4750 1894 4750 
Q 2613 4750 3031 4423 
Q 3450 4097 3450 3541 
Q 3450 3153 3228 2886 
Q 3006 2619 2597 2516 
z
" transform="scale(0.015625)"/>
      </defs>
      <use xlink:href="#DejaVuSans-43"/>
      <use xlink:href="#DejaVuSans-6f" x="69.824219"/>
      <use xlink:href="#DejaVuSans-6e" x="131.005859"/>
      <use xlink:href="#DejaVuSans-6e" x="194.384766"/>
      <use xlink:href="#DejaVuSans-65" x="257.763672"/>
      <use xlink:href="#DejaVuSans-63" x="319.287109"/>
      <use xlink:href="#DejaVuSans-74" x="374.267578"/>
      <use xlink:href="#DejaVuSans-69" x="413.476562"/>
      <use xlink:href="#DejaVuSans-6f" x="441.259766"/>
      <use xlink:href="#DejaVuSans-6e" x="502.441406"/>
      <use xlink:href="#DejaVuSans-20" x="565.820312"/>
      <use xlink:href="#DejaVuSans-28" x="597.607422"/>
      <use xlink:href="#DejaVuSans-32" x="636.621094"/>
      <use xlink:href="#DejaVuSans-2c" x="700.244141"/>
      <use xlink:href="#DejaVuSans-20" x="732.03125"/>
      <use xlink:href="#DejaVuSans-33" x="763.818359"/>
      <use xlink:href="#DejaVuSans-29" x="827.441406"/>
     </g>
    </g>
   </g>
   <g id="text_4">
    <g id="patch_5">
     <path d="M 95.831826 224.482623 
L 165.148079 276.469807 
Q 167.548079 278.269807 169.348079 275.869807 
L 175.154953 268.127307 
Q 176.954953 265.727307 174.554953 263.927307 
L 105.238701 211.940123 
Q 102.8387 210.140123 101.038701 212.540123 
L 95.231826 220.282623 
Q 93.431826 222.682623 95.831826 224.482623 
z
" clip-path="url(#pf2e095164f)" style="fill: #ffffff; stroke: #ffffff; stroke-linejoin: miter"/>
    </g>
    <g clip-path="url(#pf2e095164f)">
     <!-- Connection (3, 4) -->
     <g transform="translate(98.879638 220.418873) rotate(-323.130105) scale(0.1 -0.1)">
      <use xlink:href="#DejaVuSans-43"/>
      <use xlink:href="#DejaVuSans-6f" x="69.824219"/>
      <use xlink:href="#DejaVuSans-6e" x="131.005859"/>
      <use xlink:href="#DejaVuSans-6e" x="194.384766"/>
      <use xlink:href="#DejaVuSans-65" x="257.763672"/>
      <use xlink:href="#DejaVuSans-63" x="319.287109"/>
      <use xlink:href="#DejaVuSans-74" x="374.267578"/>
      <use xlink:href="#DejaVuSans-69" x="413.476562"/>
      <use xlink:href="#DejaVuSans-6f" x="441.259766"/>
      <use xlink:href="#DejaVuSans-6e" x="502.441406"/>
      <use xlink:href="#DejaVuSans-20" x="565.820312"/>
      <use xlink:href="#DejaVuSans-28" x="597.607422"/>
      <use xlink:href="#DejaVuSans-33" x="636.621094"/>
      <use xlink:href="#DejaVuSans-2c" x="700.244141"/>
      <use xlink:href="#DejaVuSans-20" x="732.03125"/>
      <use xlink:href="#DejaVuSans-34" x="763.818359"/>
      <use xlink:href="#DejaVuSans-29" x="827.441406"/>
     </g>
    </g>
   </g>
   <g id="PathCollection_1">
    <defs>
     <path id="m38d07ba383" d="M 0 8.660254 
C 2.296726 8.660254 4.499694 7.747755 6.123724 6.123724 
C 7.747755 4.499694 8.660254 2.296726 8.660254 0 
C 8.660254 -2.296726 7.747755 -4.499694 6.123724 -6.123724 
C 4.499694 -7.747755 2.296726 -8.660254 0 -8.660254 
C -2.296726 -8.660254 -4.499694 -7.747755 -6.123724 -6.123724 
C -7.747755 -4.499694 -8.660254 -2.296726 -8.660254 0 
C -8.660254 2.296726 -7.747755 4.499694 -6.123724 6.123724 
C -4.499694 7.747755 -2.296726 8.660254 0 8.660254 
z
" style="stroke: #1f78b4"/>
    </defs>
    <g clip-path="url(#pf2e095164f)">
     <use xlink:href="#m38d07ba383" x="420.813223" y="172.8" style="fill: #1f78b4; stroke: #1f78b4"/>
     <use xlink:href="#m38d07ba383" x="230.399992" y="29.990083" style="fill: #1f78b4; stroke: #1f78b4"/>
     <use xlink:href="#m38d07ba383" x="39.986777" y="172.800012" style="fill: #1f78b4; stroke: #1f78b4"/>
     <use xlink:href="#m38d07ba383" x="230.400002" y="315.609917" style="fill: #1f78b4; stroke: #1f78b4"/>
    </g>
   </g>
   <g id="text_5">
    <g clip-path="url(#pf2e095164f)">
     <!-- 1 -->
     <g style="fill: #ffffff" transform="translate(416.995723 176.11125) scale(0.12 -0.12)">
      <use xlink:href="#DejaVuSans-31"/>
     </g>
    </g>
   </g>
   <g id="text_6">
    <g clip-path="url(#pf2e095164f)">
     <!-- 2 -->
     <g style="fill: #ffffff" transform="translate(226.582492 33.301333) scale(0.12 -0.12)">
      <use xlink:href="#DejaVuSans-32"/>
     </g>
    </g>
   </g>
   <g id="text_7">
    <g clip-path="url(#pf2e095164f)">
     <!-- 3 -->
     <g style="fill: #ffffff" transform="translate(36.169277 176.111262) scale(0.12 -0.12)">
      <use xlink:href="#DejaVuSans-33"/>
     </g>
    </g>
   </g>
   <g id="text_8">
    <g clip-path="url(#pf2e095164f)">
     <!-- 4 -->
     <g style="fill: #ffffff" transform="translate(226.582502 318.921167) scale(0.12 -0.12)">
      <use xlink:href="#DejaVuSans-34"/>
     </g>
    </g>
   </g>
  </g>
 </g>
 <defs>
  <clipPath id="pf2e095164f">
   <rect x="0" y="0" width="460.8" height="345.6"/>
  </clipPath>
 </defs>
</svg>
